<svg width="25" height="24" viewBox="0 0 25 24" fill="none" xmlns="http://www.w3.org/2000/svg">
<g id="fi-rr-envelope" clip-path="url(#clip0_269_77)">
<path id="Vector" d="M19.4351 1.25317H5.61784C4.30955 1.25474 3.05529 1.77515 2.13019 2.70025C1.20508 3.62536 0.684673 4.87962 0.683105 6.18791L0.683105 18.0313C0.684673 19.3396 1.20508 20.5938 2.13019 21.5189C3.05529 22.444 4.30955 22.9644 5.61784 22.966H19.4351C20.7434 22.9644 21.9976 22.444 22.9227 21.5189C23.8479 20.5938 24.3683 19.3396 24.3698 18.0313V6.18791C24.3683 4.87962 23.8479 3.62536 22.9227 2.70025C21.9976 1.77515 20.7434 1.25474 19.4351 1.25317V1.25317ZM5.61784 3.22707H19.4351C20.0261 3.22823 20.6032 3.40621 21.0921 3.73811C21.5811 4.07001 21.9596 4.54064 22.1788 5.08944L14.6208 12.6485C14.0646 13.2024 13.3115 13.5135 12.5265 13.5135C11.7414 13.5135 10.9884 13.2024 10.4322 12.6485L2.87413 5.08944C3.09338 4.54064 3.47184 4.07001 3.9608 3.73811C4.44977 3.40621 5.02687 3.22823 5.61784 3.22707V3.22707ZM19.4351 20.9921H5.61784C4.83258 20.9921 4.07947 20.6802 3.52421 20.1249C2.96894 19.5696 2.657 18.8165 2.657 18.0313V7.66833L9.03662 14.044C9.963 14.968 11.218 15.487 12.5265 15.487C13.8349 15.487 15.0899 14.968 16.0163 14.044L22.3959 7.66833V18.0313C22.3959 18.8165 22.084 19.5696 21.5287 20.1249C20.9735 20.6802 20.2204 20.9921 19.4351 20.9921Z" fill="#4B0E0A"/>
</g>
<defs>
<clipPath id="clip0_269_77">
<rect width="23.6867" height="23.6867" fill="white" transform="translate(0.683105 0.266357)"/>
</clipPath>
</defs>
</svg>
