<svg width="24" height="24" viewBox="0 0 24 24" fill="none" xmlns="http://www.w3.org/2000/svg">
<g id="Facebook svg" clip-path="url(#clip0_269_80)">
<g id="g10">
<g id="g12">
<path id="path14" d="M23.7624 12.1098C23.7624 5.56893 18.46 0.266479 11.919 0.266479C5.37813 0.266479 0.0756836 5.56893 0.0756836 12.1098C0.0756836 18.0212 4.40663 22.9208 10.0685 23.8093V15.5333H7.06142V12.1098H10.0685V9.5006C10.0685 6.53236 11.8367 4.89279 14.5419 4.89279C15.8377 4.89279 17.193 5.12411 17.193 5.12411V8.03868H15.6996C14.2284 8.03868 13.7696 8.95162 13.7696 9.88822V12.1098H17.0543L16.5292 15.5333H13.7696V23.8093C19.4315 22.9208 23.7624 18.0212 23.7624 12.1098Z" fill="#60120D"/>
<path id="path16" d="M16.5293 15.5332L17.0544 12.1098H13.7697V9.88814C13.7697 8.95154 14.2285 8.03861 15.6997 8.03861H17.1932V5.12403C17.1932 5.12403 15.8378 4.89272 14.542 4.89272C11.8368 4.89272 10.0686 6.53228 10.0686 9.50052V12.1098H7.06152V15.5332H10.0686V23.8092C10.6716 23.9039 11.2896 23.9531 11.9192 23.9531C12.5487 23.9531 13.1667 23.9039 13.7697 23.8092V15.5332H16.5293Z" fill="white"/>
</g>
</g>
</g>
<defs>
<clipPath id="clip0_269_80">
<rect width="23.6867" height="23.6867" fill="white" transform="translate(0.0756836 0.266357)"/>
</clipPath>
</defs>
</svg>
