<svg width="25" height="24" viewBox="0 0 25 24" fill="none" xmlns="http://www.w3.org/2000/svg">
<g id="Instagram svg" clip-path="url(#clip0_269_69)">
<path id="Vector" d="M7.3178 0.349187C6.05765 0.408641 5.19711 0.609742 4.44481 0.905354C3.66622 1.20878 3.0063 1.61596 2.3497 2.27492C1.69309 2.93389 1.28876 3.59428 0.987458 4.37405C0.695872 5.128 0.498322 5.98925 0.442658 7.2501C0.386994 8.51095 0.374676 8.91623 0.380835 12.1324C0.386994 15.3486 0.401206 15.7518 0.462318 17.0152C0.522483 18.2751 0.722875 19.1354 1.01849 19.888C1.32239 20.6665 1.7291 21.3262 2.3883 21.9831C3.04751 22.6399 3.70743 23.0433 4.4891 23.345C5.24235 23.6362 6.10384 23.8347 7.36446 23.8898C8.62508 23.945 9.03084 23.9578 12.2461 23.9517C15.4614 23.9455 15.8662 23.9313 17.1294 23.8714C18.3926 23.8114 19.2484 23.6096 20.0012 23.3154C20.7798 23.0108 21.44 22.6048 22.0963 21.9454C22.7527 21.286 23.1568 20.6251 23.4579 19.8449C23.7497 19.0916 23.9479 18.2301 24.0027 16.9705C24.0578 15.7063 24.0709 15.3027 24.0647 12.0869C24.0586 8.87123 24.0441 8.46808 23.9842 7.2051C23.9243 5.94212 23.7236 5.08442 23.4283 4.33141C23.1239 3.55283 22.7176 2.89362 22.0587 2.23632C21.3997 1.57901 20.7384 1.17515 19.9583 0.874798C19.2046 0.583213 18.3436 0.384481 17.083 0.330001C15.8224 0.275521 15.4166 0.261546 12.2002 0.267705C8.9837 0.273863 8.58103 0.287602 7.3178 0.349187ZM7.45613 21.7592C6.30139 21.709 5.6744 21.5171 5.25656 21.3565C4.70323 21.1434 4.30908 20.8856 3.89266 20.4733C3.47625 20.0609 3.22043 19.6653 3.0044 19.1132C2.84215 18.6953 2.64673 18.069 2.59272 16.9143C2.53398 15.6663 2.52166 15.2915 2.51479 12.1296C2.50792 8.96763 2.52 8.59338 2.57472 7.34485C2.62399 6.19106 2.81704 5.56336 2.9774 5.14577C3.19058 4.59173 3.44735 4.19829 3.86069 3.78212C4.27402 3.36594 4.66841 3.10965 5.22103 2.89362C5.63839 2.73066 6.26468 2.5369 7.41894 2.48195C8.66796 2.42273 9.04221 2.41089 12.2037 2.40402C15.3652 2.39715 15.7404 2.40899 16.9899 2.46395C18.1437 2.51416 18.7716 2.70531 19.1888 2.86662C19.7423 3.0798 20.1362 3.33586 20.5524 3.7499C20.9686 4.16395 21.2251 4.55691 21.4412 5.11071C21.6044 5.52689 21.7981 6.15293 21.8526 7.3079C21.912 8.5569 21.9255 8.93139 21.9312 12.0926C21.9369 15.2539 21.9258 15.6293 21.8711 16.8774C21.8206 18.0321 21.6292 18.6593 21.4684 19.0776C21.2552 19.6307 20.9982 20.0251 20.5846 20.441C20.1711 20.857 19.7771 21.1133 19.2243 21.3293C18.8074 21.492 18.1804 21.6863 17.0271 21.7412C15.7781 21.8 15.4038 21.8123 12.2411 21.8191C9.07845 21.826 8.70538 21.8132 7.45637 21.7592M17.1112 5.77986C17.1116 6.06097 17.1955 6.33562 17.352 6.56909C17.5086 6.80256 17.7309 6.98434 17.9908 7.09147C18.2507 7.19859 18.5365 7.22623 18.8122 7.17089C19.0878 7.11556 19.3408 6.97973 19.5392 6.78059C19.7376 6.58145 19.8725 6.32795 19.9268 6.05214C19.9811 5.77633 19.9525 5.49061 19.8444 5.2311C19.7363 4.9716 19.5537 4.74997 19.3197 4.59425C19.0856 4.43854 18.8107 4.35572 18.5295 4.35628C18.1527 4.35704 17.7916 4.50743 17.5256 4.77439C17.2596 5.04135 17.1105 5.40302 17.1112 5.77986ZM6.14174 12.1215C6.14837 15.4803 8.87617 18.197 12.2343 18.1906C15.5924 18.1842 18.3109 15.4566 18.3045 12.0978C18.2981 8.73905 15.5696 6.0217 12.2111 6.02834C8.85248 6.03497 6.13535 8.76322 6.14174 12.1215ZM8.27499 12.1173C8.27345 11.3365 8.50348 10.5727 8.93599 9.92263C9.36851 9.27255 9.98408 8.76532 10.7049 8.46509C11.4257 8.16486 12.2193 8.0851 12.9854 8.23592C13.7515 8.38673 14.4557 8.76134 15.0089 9.31236C15.5622 9.86339 15.9396 10.5661 16.0934 11.3316C16.2473 12.0971 16.1706 12.891 15.8733 13.613C15.5759 14.335 15.0711 14.9526 14.4227 15.3876C13.7744 15.8227 13.0115 16.0558 12.2307 16.0573C11.7122 16.0584 11.1986 15.9574 10.7192 15.7599C10.2398 15.5625 9.80403 15.2726 9.43669 14.9067C9.06936 14.5408 8.7777 14.1061 8.57837 13.6275C8.37904 13.1489 8.27595 12.6357 8.27499 12.1173Z" fill="#60120D"/>
</g>
<defs>
<clipPath id="clip0_269_69">
<rect width="23.6867" height="23.6867" fill="white" transform="translate(0.379395 0.266357)"/>
</clipPath>
</defs>
</svg>
