<svg width="24" height="24" viewBox="0 0 24 24" fill="none" xmlns="http://www.w3.org/2000/svg">
<path id="Path 2520" d="M20.4098 20.449H16.9001V14.9526C16.9001 13.642 16.8767 11.9547 15.0748 11.9547C13.2468 11.9547 12.9672 13.3827 12.9672 14.8572V20.4487H9.45751V9.14581H12.8268V10.6905H12.8739C13.2111 10.1139 13.6983 9.63965 14.2837 9.31813C14.8691 8.99661 15.5308 8.83989 16.1982 8.86467C19.7554 8.86467 20.4112 11.2045 20.4112 14.2485L20.4098 20.449ZM5.49748 7.60079C5.09466 7.60086 4.70086 7.48148 4.36589 7.25774C4.03092 7.034 3.76983 6.71595 3.61561 6.34381C3.46139 5.97167 3.42098 5.56215 3.49949 5.16705C3.57801 4.77194 3.77193 4.40899 4.05671 4.1241C4.34149 3.8392 4.70436 3.64515 5.09943 3.56649C5.49449 3.48783 5.904 3.5281 6.27618 3.68219C6.64837 3.83628 6.9665 4.09727 7.19035 4.43218C7.4142 4.76708 7.53373 5.16084 7.5338 5.56367C7.53385 5.83114 7.48121 6.096 7.3789 6.34313C7.27659 6.59026 7.12663 6.81482 6.93754 7.00398C6.74845 7.19315 6.52393 7.34321 6.27685 7.44561C6.02977 7.54801 5.76494 7.60074 5.49748 7.60079ZM7.25229 20.449H3.73901V9.14581H7.25229V20.449ZM22.1595 0.267971H1.97543C1.51731 0.262801 1.07585 0.439728 0.748108 0.759873C0.420365 1.08002 0.233144 1.51719 0.227553 1.97532V22.2438C0.232953 22.7021 0.420064 23.1396 0.747796 23.4601C1.07553 23.7805 1.51708 23.9578 1.97543 23.9529H22.1595C22.6187 23.9587 23.0615 23.7819 23.3905 23.4615C23.7196 23.141 23.9079 22.703 23.9143 22.2438V1.97386C23.9077 1.51482 23.7192 1.07715 23.3902 0.757012C23.0612 0.436875 22.6185 0.260454 22.1595 0.266508" fill="#60120D"/>
</svg>
