<svg width="25" height="24" viewBox="0 0 25 24" fill="none" xmlns="http://www.w3.org/2000/svg">
<g id="WhatsApp svg" clip-path="url(#clip0_269_53)">
<path id="Vector" fill-rule="evenodd" clip-rule="evenodd" d="M20.7667 3.70587C18.5403 1.48897 15.5793 0.267482 12.4244 0.266357C5.92334 0.266357 0.632475 5.52743 0.630213 11.9942C0.629082 14.0615 1.17253 16.0793 2.20458 17.8576L0.53125 23.9358L6.78347 22.3049C8.50598 23.2396 10.4457 23.7317 12.4193 23.7322H12.4244C18.9243 23.7322 24.2157 18.4706 24.218 12.0038C24.2191 8.86968 22.9936 5.92334 20.7667 3.70644V3.70587ZM12.4244 21.7515H12.4204C10.6617 21.751 8.93635 21.2808 7.431 20.3928L7.07301 20.1814L3.36273 21.1492L4.35293 17.5516L4.11994 17.1827C3.13879 15.6306 2.62022 13.8366 2.62135 11.9948C2.62362 6.62013 7.02098 2.24706 12.4284 2.24706C15.0466 2.24818 17.5077 3.26328 19.3586 5.1062C21.2095 6.94857 22.228 9.39831 22.2268 12.0027C22.2245 17.3779 17.8272 21.751 12.4244 21.751V21.7515ZM17.8012 14.4507C17.5065 14.3039 16.0578 13.5953 15.7874 13.4975C15.5171 13.3996 15.3209 13.3507 15.1246 13.6443C14.9284 13.9379 14.3635 14.5981 14.1916 14.7932C14.0197 14.9889 13.8477 15.0131 13.5531 14.8663C13.2585 14.7195 12.309 14.4102 11.1831 13.412C10.3072 12.6348 9.71558 11.6754 9.54372 11.3818C9.37179 11.0882 9.52563 10.9296 9.67262 10.784C9.80493 10.6524 9.96725 10.4415 10.1148 10.2705C10.2625 10.0996 10.3111 9.977 10.4095 9.78181C10.5079 9.5861 10.4587 9.41519 10.3852 9.26836C10.3116 9.12159 9.72242 7.67906 9.47641 7.09252C9.23717 6.52115 8.99406 6.59876 8.81364 6.5892C8.64172 6.58076 8.44551 6.57908 8.24871 6.57908C8.05192 6.57908 7.73294 6.65219 7.46264 6.94575C7.19235 7.23928 6.43116 7.94845 6.43116 9.39039C6.43116 10.8323 7.48699 12.2265 7.63457 12.4222C7.78215 12.6179 9.71275 15.5777 12.6687 16.8476C13.3716 17.1496 13.9207 17.3301 14.3488 17.4651C15.0546 17.6883 15.6969 17.6569 16.2048 17.5815C16.7709 17.4971 17.9482 16.8723 18.1937 16.1879C18.4391 15.5035 18.4391 14.9163 18.3656 14.7943C18.2921 14.6723 18.0953 14.5986 17.8006 14.4518L17.8012 14.4507Z" fill="#60120D"/>
</g>
<defs>
<clipPath id="clip0_269_53">
<rect width="23.6867" height="23.6867" fill="white" transform="translate(0.53125 0.266357)"/>
</clipPath>
</defs>
</svg>
